<mxfile host="app.diagrams.net" modified="2023-04-27T21:44:17.823Z" agent="Mozilla/5.0 (X11; Ubuntu; Linux x86_64; rv:109.0) Gecko/20100101 Firefox/112.0" etag="OCIHHXNyQ7TI2By05fQG" version="21.2.3" type="google">
  <diagram name="Страница 1" id="uMKXttuYRJ_Nzv-qCl7c">
    <mxGraphModel grid="1" page="1" gridSize="10" guides="1" tooltips="1" connect="1" arrows="1" fold="1" pageScale="1" pageWidth="827" pageHeight="1169" math="0" shadow="0">
      <root>
        <mxCell id="0" />
        <mxCell id="1" parent="0" />
        <mxCell id="W5s0XU8Qh8C-Z28YjeRz-1" value="&lt;font style=&quot;font-size: 15px;&quot;&gt;User&lt;/font&gt;" style="shape=umlActor;verticalLabelPosition=bottom;verticalAlign=top;html=1;outlineConnect=0;" vertex="1" parent="1">
          <mxGeometry x="266" y="156" width="30" height="60" as="geometry" />
        </mxCell>
        <mxCell id="W5s0XU8Qh8C-Z28YjeRz-2" value="" style="endArrow=none;dashed=1;html=1;rounded=0;" edge="1" parent="1" source="W5s0XU8Qh8C-Z28YjeRz-22">
          <mxGeometry width="50" height="50" relative="1" as="geometry">
            <mxPoint x="280" y="800" as="sourcePoint" />
            <mxPoint x="280" y="240" as="targetPoint" />
          </mxGeometry>
        </mxCell>
        <mxCell id="W5s0XU8Qh8C-Z28YjeRz-7" value="&lt;font style=&quot;font-size: 17px;&quot;&gt;Application&lt;/font&gt;" style="rounded=0;whiteSpace=wrap;html=1;fillColor=#dae8fc;strokeColor=#6c8ebf;" vertex="1" parent="1">
          <mxGeometry x="500" y="170" width="120" height="60" as="geometry" />
        </mxCell>
        <mxCell id="W5s0XU8Qh8C-Z28YjeRz-8" value="" style="endArrow=none;dashed=1;html=1;rounded=0;" edge="1" parent="1" source="W5s0XU8Qh8C-Z28YjeRz-25">
          <mxGeometry width="50" height="50" relative="1" as="geometry">
            <mxPoint x="559.5" y="800" as="sourcePoint" />
            <mxPoint x="559.5" y="240" as="targetPoint" />
          </mxGeometry>
        </mxCell>
        <mxCell id="W5s0XU8Qh8C-Z28YjeRz-9" value="" style="html=1;points=[];perimeter=orthogonalPerimeter;outlineConnect=0;targetShapes=umlLifeline;portConstraint=eastwest;newEdgeStyle={&quot;edgeStyle&quot;:&quot;elbowEdgeStyle&quot;,&quot;elbow&quot;:&quot;vertical&quot;,&quot;curved&quot;:0,&quot;rounded&quot;:0};" vertex="1" parent="1">
          <mxGeometry x="276" y="270" width="10" height="80" as="geometry" />
        </mxCell>
        <mxCell id="W5s0XU8Qh8C-Z28YjeRz-10" value="running" style="endArrow=block;endFill=1;html=1;edgeStyle=orthogonalEdgeStyle;align=left;verticalAlign=top;rounded=0;" edge="1" parent="1">
          <mxGeometry x="-1" relative="1" as="geometry">
            <mxPoint x="300" y="280" as="sourcePoint" />
            <mxPoint x="550" y="280" as="targetPoint" />
          </mxGeometry>
        </mxCell>
        <mxCell id="W5s0XU8Qh8C-Z28YjeRz-12" value="OS" style="rounded=0;whiteSpace=wrap;html=1;fillColor=#d5e8d4;strokeColor=#82b366;" vertex="1" parent="1">
          <mxGeometry x="780" y="170" width="120" height="60" as="geometry" />
        </mxCell>
        <mxCell id="W5s0XU8Qh8C-Z28YjeRz-13" value="" style="endArrow=none;dashed=1;html=1;rounded=0;" edge="1" parent="1" source="W5s0XU8Qh8C-Z28YjeRz-19">
          <mxGeometry width="50" height="50" relative="1" as="geometry">
            <mxPoint x="839.5" y="800" as="sourcePoint" />
            <mxPoint x="839.5" y="240" as="targetPoint" />
          </mxGeometry>
        </mxCell>
        <mxCell id="W5s0XU8Qh8C-Z28YjeRz-14" value="" style="html=1;points=[];perimeter=orthogonalPerimeter;outlineConnect=0;targetShapes=umlLifeline;portConstraint=eastwest;newEdgeStyle={&quot;edgeStyle&quot;:&quot;elbowEdgeStyle&quot;,&quot;elbow&quot;:&quot;vertical&quot;,&quot;curved&quot;:0,&quot;rounded&quot;:0};" vertex="1" parent="1">
          <mxGeometry x="555" y="370" width="10" height="80" as="geometry" />
        </mxCell>
        <mxCell id="W5s0XU8Qh8C-Z28YjeRz-16" value="loading" style="endArrow=block;endFill=1;html=1;edgeStyle=orthogonalEdgeStyle;align=left;verticalAlign=top;rounded=0;" edge="1" parent="1">
          <mxGeometry x="-1" relative="1" as="geometry">
            <mxPoint x="570" y="390" as="sourcePoint" />
            <mxPoint x="820" y="390" as="targetPoint" />
          </mxGeometry>
        </mxCell>
        <mxCell id="W5s0XU8Qh8C-Z28YjeRz-18" value="iinitialization" style="html=1;verticalAlign=bottom;endArrow=open;dashed=1;endSize=8;edgeStyle=elbowEdgeStyle;elbow=vertical;curved=0;rounded=0;" edge="1" parent="1">
          <mxGeometry relative="1" as="geometry">
            <mxPoint x="830" y="440" as="sourcePoint" />
            <mxPoint x="580" y="440" as="targetPoint" />
          </mxGeometry>
        </mxCell>
        <mxCell id="W5s0XU8Qh8C-Z28YjeRz-20" value="" style="endArrow=none;dashed=1;html=1;rounded=0;" edge="1" parent="1" target="W5s0XU8Qh8C-Z28YjeRz-19">
          <mxGeometry width="50" height="50" relative="1" as="geometry">
            <mxPoint x="839.5" y="800" as="sourcePoint" />
            <mxPoint x="839.5" y="240" as="targetPoint" />
          </mxGeometry>
        </mxCell>
        <mxCell id="W5s0XU8Qh8C-Z28YjeRz-19" value="" style="html=1;points=[];perimeter=orthogonalPerimeter;outlineConnect=0;targetShapes=umlLifeline;portConstraint=eastwest;newEdgeStyle={&quot;edgeStyle&quot;:&quot;elbowEdgeStyle&quot;,&quot;elbow&quot;:&quot;vertical&quot;,&quot;curved&quot;:0,&quot;rounded&quot;:0};" vertex="1" parent="1">
          <mxGeometry x="835" y="380" width="10" height="80" as="geometry" />
        </mxCell>
        <mxCell id="W5s0XU8Qh8C-Z28YjeRz-21" value="" style="endArrow=none;dashed=1;html=1;rounded=0;" edge="1" parent="1" target="W5s0XU8Qh8C-Z28YjeRz-22">
          <mxGeometry width="50" height="50" relative="1" as="geometry">
            <mxPoint x="280" y="800" as="sourcePoint" />
            <mxPoint x="280" y="240" as="targetPoint" />
          </mxGeometry>
        </mxCell>
        <mxCell id="W5s0XU8Qh8C-Z28YjeRz-22" value="" style="html=1;points=[];perimeter=orthogonalPerimeter;outlineConnect=0;targetShapes=umlLifeline;portConstraint=eastwest;newEdgeStyle={&quot;edgeStyle&quot;:&quot;elbowEdgeStyle&quot;,&quot;elbow&quot;:&quot;vertical&quot;,&quot;curved&quot;:0,&quot;rounded&quot;:0};" vertex="1" parent="1">
          <mxGeometry x="276" y="530" width="10" height="80" as="geometry" />
        </mxCell>
        <mxCell id="W5s0XU8Qh8C-Z28YjeRz-23" value="press button" style="endArrow=block;endFill=1;html=1;edgeStyle=orthogonalEdgeStyle;align=left;verticalAlign=top;rounded=0;" edge="1" parent="1">
          <mxGeometry x="-1" relative="1" as="geometry">
            <mxPoint x="296" y="560" as="sourcePoint" />
            <mxPoint x="546" y="560" as="targetPoint" />
          </mxGeometry>
        </mxCell>
        <mxCell id="W5s0XU8Qh8C-Z28YjeRz-24" value="" style="endArrow=none;dashed=1;html=1;rounded=0;" edge="1" parent="1" target="W5s0XU8Qh8C-Z28YjeRz-25">
          <mxGeometry width="50" height="50" relative="1" as="geometry">
            <mxPoint x="559.5" y="800" as="sourcePoint" />
            <mxPoint x="559.5" y="240" as="targetPoint" />
          </mxGeometry>
        </mxCell>
        <mxCell id="W5s0XU8Qh8C-Z28YjeRz-25" value="" style="html=1;points=[];perimeter=orthogonalPerimeter;outlineConnect=0;targetShapes=umlLifeline;portConstraint=eastwest;newEdgeStyle={&quot;edgeStyle&quot;:&quot;elbowEdgeStyle&quot;,&quot;elbow&quot;:&quot;vertical&quot;,&quot;curved&quot;:0,&quot;rounded&quot;:0};" vertex="1" parent="1">
          <mxGeometry x="555" y="550" width="10" height="80" as="geometry" />
        </mxCell>
        <mxCell id="W5s0XU8Qh8C-Z28YjeRz-26" value="run method" style="endArrow=block;endFill=1;html=1;edgeStyle=orthogonalEdgeStyle;align=left;verticalAlign=top;rounded=0;" edge="1" parent="1">
          <mxGeometry x="-1" relative="1" as="geometry">
            <mxPoint x="577" y="569.5" as="sourcePoint" />
            <mxPoint x="827" y="569.5" as="targetPoint" />
          </mxGeometry>
        </mxCell>
        <mxCell id="W5s0XU8Qh8C-Z28YjeRz-27" value="get info" style="html=1;verticalAlign=bottom;endArrow=open;dashed=1;endSize=8;edgeStyle=elbowEdgeStyle;elbow=vertical;curved=0;rounded=0;" edge="1" parent="1">
          <mxGeometry relative="1" as="geometry">
            <mxPoint x="830" y="620" as="sourcePoint" />
            <mxPoint x="580" y="620" as="targetPoint" />
          </mxGeometry>
        </mxCell>
        <mxCell id="W5s0XU8Qh8C-Z28YjeRz-28" value="" style="html=1;points=[];perimeter=orthogonalPerimeter;outlineConnect=0;targetShapes=umlLifeline;portConstraint=eastwest;newEdgeStyle={&quot;edgeStyle&quot;:&quot;elbowEdgeStyle&quot;,&quot;elbow&quot;:&quot;vertical&quot;,&quot;curved&quot;:0,&quot;rounded&quot;:0};" vertex="1" parent="1">
          <mxGeometry x="835" y="560" width="10" height="80" as="geometry" />
        </mxCell>
        <mxCell id="W5s0XU8Qh8C-Z28YjeRz-29" value="" style="html=1;points=[];perimeter=orthogonalPerimeter;outlineConnect=0;targetShapes=umlLifeline;portConstraint=eastwest;newEdgeStyle={&quot;edgeStyle&quot;:&quot;elbowEdgeStyle&quot;,&quot;elbow&quot;:&quot;vertical&quot;,&quot;curved&quot;:0,&quot;rounded&quot;:0};" vertex="1" parent="1">
          <mxGeometry x="555" y="730" width="10" height="80" as="geometry" />
        </mxCell>
        <mxCell id="W5s0XU8Qh8C-Z28YjeRz-30" value="closing" style="endArrow=block;endFill=1;html=1;edgeStyle=orthogonalEdgeStyle;align=left;verticalAlign=top;rounded=0;" edge="1" parent="1">
          <mxGeometry x="-1" relative="1" as="geometry">
            <mxPoint x="577" y="749.5" as="sourcePoint" />
            <mxPoint x="827" y="749.5" as="targetPoint" />
          </mxGeometry>
        </mxCell>
        <mxCell id="W5s0XU8Qh8C-Z28YjeRz-31" value="clear memory" style="html=1;verticalAlign=bottom;endArrow=open;dashed=1;endSize=8;edgeStyle=elbowEdgeStyle;elbow=vertical;curved=0;rounded=0;" edge="1" parent="1">
          <mxGeometry relative="1" as="geometry">
            <mxPoint x="830" y="800" as="sourcePoint" />
            <mxPoint x="580" y="800" as="targetPoint" />
          </mxGeometry>
        </mxCell>
        <mxCell id="W5s0XU8Qh8C-Z28YjeRz-32" value="" style="html=1;points=[];perimeter=orthogonalPerimeter;outlineConnect=0;targetShapes=umlLifeline;portConstraint=eastwest;newEdgeStyle={&quot;edgeStyle&quot;:&quot;elbowEdgeStyle&quot;,&quot;elbow&quot;:&quot;vertical&quot;,&quot;curved&quot;:0,&quot;rounded&quot;:0};" vertex="1" parent="1">
          <mxGeometry x="835" y="740" width="10" height="80" as="geometry" />
        </mxCell>
      </root>
    </mxGraphModel>
  </diagram>
</mxfile>
